<svg id="Layer_1" data-name="Layer 1" xmlns="http://www.w3.org/2000/svg" viewBox="0 0 761.82 240.74"><defs><style>.cls-1{fill:#fff;}</style></defs><path class="cls-1" d="M421.39,396.67a183.32,183.32,0,0,1-19.11,34.79c-6.42,9.12-13.95,19.23-26.34,22.32-12.88,3.22-11.24-28.24-10.46-41.22.61-13.27,2-26.34,3.62-39.42,4.9-42.45,11.8-85.31,19.91-125.88-.2.4-.8.6-1.2.81-.21.4-.41,1-.61,1.4l-12.06,30.77C358.86,321.74,342,363,321.85,401.3a243.91,243.91,0,0,1-16.69,28.75,61.47,61.47,0,0,1-11.27,12.87c-3.86,2.58-10.38,5.18-14.07,0-6.35-8.89-6.64-24.06-6.64-38,0-38.54,9.66-70,22.12-97.13,12-26.06,28.1-50,49.27-67.37,7.62-5.63,20-15.74,33.58-10.65a18.17,18.17,0,0,1,9.45,8.64c2.62-7,5.43-14.07,7.44-21.11h-.2c1-2.37,4.28-1.08,3.82,1.2-10.88,49.75-20.8,102.28-27.35,155.45-2.06,19.16-4.9,38.37-3.61,58.92.35,5.7.71,20.88,7.64,18.9,11.58-2.89,18.72-13,24.93-21.52a177.66,177.66,0,0,0,18.5-34.38C419.74,393.94,422.35,395.71,421.39,396.67Zm-37-149.21a1.54,1.54,0,0,1-.41-.8c-8.44-25.34-37.74,1.43-46.45,10.86-21,22.66-37,51.76-47.26,84.45-6.65,21.64-11.46,44.71-11.46,72,0,8.7.47,16.76,2.82,23.52,4.28,12.84,17.27-5.63,19.91-9.25a247.63,247.63,0,0,0,17.09-27.95c20.17-38.37,37.16-78.82,53.49-120.45C376.34,269.29,380.76,258.35,384.39,247.46Zm5-3.42c.2,0,.2.2.2.41.2-.41.2-1,.41-1.61Z" transform="translate(-273.18 -214.15)"/><path class="cls-1" d="M450.13,388.43h.2l.2.2h.2l.21.2c5.39,2.7,7.52,11.94,13.67,13.47a12.54,12.54,0,0,0,5,1.21l2.61-.2c5.69,0,11.47-2.85,15.28-5.23l4.83-2.81c1.36-.91,3.65,1.79,1.61,2.81l-5,2.61a42.79,42.79,0,0,1-13.47,5.23,11.7,11.7,0,0,1-2.82.61l-3,.2c-1,0-2-.2-3-.2-8.61-1.73-12-7.78-17.09-12.87a3.27,3.27,0,0,0-1.61-1.21h-.81c-4.05,0-8.08,3.29-11.06,5.63-5.83,4.42-11.46,9.25-17.09,14.08-1.29,1.28-2.61-.19-2.61-1.41l3.42-18.1c.49-2,3.48-1.27,3,.6l-2.41,12.47,4-4c5.31-4.93,11.58-11,19.31-13.27a9.4,9.4,0,0,1,3.41-.6A6.89,6.89,0,0,1,450.13,388.43Z" transform="translate(-273.18 -214.15)"/><path class="cls-1" d="M523.16,388.43h.2l.2.2h.2l.2.2c5.4,2.7,7.53,11.94,13.68,13.47a12.53,12.53,0,0,0,5,1.21l2.62-.2c5.68,0,11.47-2.85,15.28-5.23l4.83-2.81c1.36-.91,3.64,1.79,1.61,2.81l-5,2.61a42.79,42.79,0,0,1-13.47,5.23,11.7,11.7,0,0,1-2.82.61l-3,.2c-1,0-2-.2-3-.2-8.62-1.73-12-7.78-17.1-12.87a3.24,3.24,0,0,0-1.6-1.21h-.81c-4,0-8.08,3.29-11.06,5.63-5.83,4.42-11.46,9.25-17.09,14.08-1.29,1.28-2.62-.19-2.62-1.41l3.42-18.1c.49-2,3.49-1.27,3,.6l-2.41,12.47,4-4c5.31-4.93,11.58-11,19.3-13.27a9.45,9.45,0,0,1,3.42-.6A7,7,0,0,1,523.16,388.43Z" transform="translate(-273.18 -214.15)"/><path class="cls-1" d="M594,381.39v-.2c1-1.56,2.86.27,2.42,1.61-1.73,4.6-3.22,8.74-3.22,14.47.41,2.89,1.24,5.72,4.62,5.23,5.2-.74,9.09-4,12.67-7,1.32-1.32,3.13,1.29,1.81,2.61-3.66,2.81-8.52,6.66-14.27,7.24-4.89,1.22-7.44-3.8-7.44-7.84a12.63,12.63,0,0,1,0-2.82c.55-2.2.54-4.64,1.2-6.63a97.65,97.65,0,0,1-20.31,15.28,22.71,22.71,0,0,1-4.42,1.61h-.81c-1.39,0-3.21-1-3.21-2.42v-.8c0-5.76,5.1-10.29,8.44-13.07,3.64-3,10.25-4.84,13.07.8.2.2.2.2.2.4A45.13,45.13,0,0,0,594,381.39Zm-24.73,18.1a.7.7,0,0,1,.4-.2c3.76-1.71,7.53-4.42,11.06-6.44l-.2-.2v-.2a2.85,2.85,0,0,1-.4-.8c0-.23-.61-.81-.61-.81C575.32,390.84,571,396.53,569.28,399.49Z" transform="translate(-273.18 -214.15)"/><path class="cls-1" d="M840.82,397.07c-9.39,16.9-21,36-38.41,47.86-8.16,5.57-20.24,11.38-34,9.66-23.1-2.17-35.76-23-41.83-42.83-8.87-30.4-4.54-63.18,3-91.9,7.94-31.33,21.17-61.52,40.22-82.85a82.71,82.71,0,0,1,16.69-14.69c8-5.3,19.9-11.35,30.77-6.23,11.63,4.79,12.23,21.4,9.45,34.39-.8,2.81-1.61,5.43-2.21,8l-1.81,6c1.27-1.28,5-7.43,7-5.44s-2.48,4.46-3.82,6a60.11,60.11,0,0,0-5.83,8.24c-1.5,4.69-2.75,11.4-5.64,14.28a.7.7,0,0,1-.4.2c-1,.48-1.81-.82-1.81-1.41v-.6c0-.2.2-.6.2-.8a37.62,37.62,0,0,1,5.43-13.28c4.93-14.78,17.9-56.72-10.86-52.88-13.56,2.26-24.67,13-32.57,22.32-18.29,21.46-30.92,49.79-39.62,80.43C727.14,348.8,722,381,730.22,411c4.11,14,11,26.33,21.51,34,9.16,6.7,21.57,9.37,34.59,5,26.76-8.42,40.22-33,52.08-54.09C839,394.26,842.25,395.55,840.82,397.07Z" transform="translate(-273.18 -214.15)"/><path class="cls-1" d="M913,376.76c.6,1.8,1.21,3.25,1.81,5,3.93,12.28-3.43,21.44-2.21,33.58,1.4,14.06,21.1.56,24.93-2.21a149.44,149.44,0,0,0,19.71-17.69,3.08,3.08,0,0,1,2.21-.61,1.56,1.56,0,0,1,0,2.21c-9.6,9-19.36,18.53-32,24.54-2.81,1.12-6.34,2.7-10.46,2a5.42,5.42,0,0,1-2.41-.81c-.2,0-.2-.2-.41-.2-8.83-6.62-2.41-22.65-2.41-34a17.54,17.54,0,0,0-1.61-7.84c-6.7,10.42-16,19.62-24.93,27.75-3.31,2.91-19.57,18.72-23.53,6.83-1.77-3.9-1.61-8.6-1.61-13.67.2-1.81.2-3.62.4-5.43-3.48,7-8,14.74-15.08,18.3-.4.2-.6.4-1,.4a1.53,1.53,0,0,1-1,.2c-6.14.77-7-6.92-6.43-12.67,0-2.89.43-8.88,3.62-8.24,4.54.91-3.36,16.89,2.61,16.89h.6c0-.2.41-.2.41-.2,4.9-1.23,8.5-7.91,11-11.86A120.1,120.1,0,0,0,861.69,388a1.41,1.41,0,0,1,2.82,0v.2c-1.72,5.14-4.22,31.16,3,29.36a17.83,17.83,0,0,0,5.63-2.62c10.9-7.26,20.14-17.66,28.16-27.75a74,74,0,0,0,7.44-10.66v-.2c-1-3.84-.77-10.19,3.21-10.86,2.24,0,3,2.24,3,4A15.62,15.62,0,0,1,913,376.76Z" transform="translate(-273.18 -214.15)"/><path class="cls-1" d="M990.75,418.79c15.84-3.44,29.37-14.69,38.21-23.52,1.75-1.76,3.74,1.32,1.21,3.21-10,7.46-22.38,19.59-38.41,22.93-13.71,2.85-23.56-2.4-29.36-11.26-12.52-19.88-7.63-54.42-1.81-80.24,6.88-30.55,16.49-60.55,29.56-86.67,4.46-8.68,9.27-18.42,16.49-24.74,2.68-2.34,7.32-5,12.27-3.62,15,4.1,17.21,28.45,15.68,47.26-3.51,51.28-33.5,95.84-58.52,120.86-6.31,6.31-10.06,8.86-14.48,13.27C964.2,410,973.13,422.8,990.75,418.79Zm-30-37a71.71,71.71,0,0,0,.6,9.25c0,.61.2,1,.2,1.61,3.53-3.52,7.2-6.19,12.87-11.86,24.45-24.45,54-68.72,57.51-118.85,1.31-15.19-.44-33.91-8.64-41.42a10.27,10.27,0,0,0-13.47.8c-6.46,6.45-11,15.21-15.29,23.73a353.11,353.11,0,0,0-16.69,43C969.18,316.55,960.79,347.42,960.79,381.79Z" transform="translate(-273.18 -214.15)"/></svg>